<svg xmlns="http://www.w3.org/2000/svg" viewBox="0 0 602 599" width="99" height="99">
	<style>
		tspan { white-space:pre }
		.shp0 { fill: #eb7859 } 
		.shp1 { fill: #ffffff } 
		.shp2 { fill: #4a3b34 } 
	</style>
	<path id="Layer" fill-rule="evenodd" class="shp0" d="M279.53 79.73C306.3 77.16 333.89 81.8 357.84 94.21C370.37 100.33 381.72 108.63 391.95 118.07C415.04 140.18 430.52 170.16 434.72 201.89C440.1 240.42 428.67 280.85 403.97 310.89C378.38 342.4 338.66 362.11 298.01 362.87C270.23 363.78 242.24 356.2 218.7 341.4C189.77 323.51 167.79 294.71 158.11 262.1C144.86 219.58 153.47 171 180.58 135.66C203.75 104.21 240.73 83.61 279.53 79.73ZM253.47 143.78C245 145.93 238.22 153.25 236.49 161.79C234.52 168.78 237.4 176.01 241.17 181.86C247.25 190.44 255.32 197.97 265.13 202.04C269.64 203.28 275.58 203.89 278.82 199.73C284.27 193.18 284.59 184.08 284.49 175.96C284.42 166.35 282.36 155.78 275.05 148.97C269.39 143.53 260.94 142.2 253.47 143.78ZM320.17 144.15C315.88 145.73 311.88 148.43 309.04 152.04C306.6 156.06 304.31 160.35 303.62 165.07C302.18 173.61 301.9 182.49 303.83 190.97C305.1 195.53 307.36 200.46 311.91 202.52C320.61 204.54 328.51 199.19 334.91 193.98C342.75 186.91 350.47 178.08 351.17 167.04C350.97 156.82 344.1 146.46 333.92 143.88C329.42 142.92 324.61 142.81 320.17 144.15ZM208.44 198.65C202.71 201.35 197.9 206.56 196.91 212.97C195.4 220.03 197.87 227.91 203.53 232.47C210.13 237.77 218.72 239.92 227.01 240.67C232.66 240.94 239.32 241.07 243.54 236.66C246.38 233.97 246.13 229.66 245.4 226.16C243.34 216.84 237.2 209.08 230.54 202.53C224.73 197.02 215.79 195.81 208.44 198.65ZM361.66 199C353.19 203.9 347.32 212.43 343.19 221.13C341.09 226.34 339.34 233.79 344.65 237.73C350.52 241.85 358.27 241.03 365 240.09C373.63 238.18 383.62 235.31 388.04 226.88C393.84 217.05 389.15 202.3 378.11 198.61C372.86 196.64 366.76 196.46 361.66 199ZM289.46 214.69C279.14 218.19 269.86 224.43 261.98 231.91C254.89 238.28 247.98 245.21 243.65 253.83C239.42 262.64 237.95 273.41 242.3 282.48C247.46 294.79 262.03 302.21 275.01 299.11C281.37 297.73 286.07 292.95 291.08 289.15C292.24 288.13 294.08 287.69 295.41 288.69C300.01 291.76 303.71 296.25 309.05 298.15C323.01 303.64 340.2 295.13 345.21 281.19C349.39 271.9 347.09 261.11 342.63 252.38C336.14 241 326.32 231.89 315.82 224.24C307.96 219.26 299.38 212.45 289.46 214.69Z" />
	<path id="Layer" class="shp1" d="M253.47 143.78C260.94 142.2 269.39 143.53 275.05 148.97C282.36 155.78 284.42 166.35 284.49 175.96C284.59 184.08 284.27 193.18 278.82 199.73C275.58 203.89 269.64 203.28 265.13 202.04C255.32 197.97 247.25 190.44 241.17 181.86C237.4 176.01 234.52 168.78 236.49 161.79C238.22 153.25 245 145.93 253.47 143.78Z" />
	<path id="Layer" class="shp1" d="M320.17 144.15C324.61 142.81 329.42 142.92 333.92 143.88C344.1 146.46 350.97 156.82 351.17 167.04C350.47 178.08 342.75 186.91 334.91 193.98C328.51 199.19 320.61 204.54 311.91 202.52C307.36 200.46 305.1 195.53 303.83 190.97C301.9 182.49 302.18 173.61 303.62 165.07C304.31 160.35 306.6 156.06 309.04 152.04C311.88 148.43 315.88 145.73 320.17 144.15Z" />
	<path id="Layer" class="shp1" d="M208.44 198.65C215.79 195.81 224.73 197.02 230.54 202.53C237.2 209.08 243.34 216.84 245.4 226.16C246.13 229.66 246.38 233.97 243.54 236.66C239.32 241.07 232.66 240.94 227.01 240.67C218.72 239.92 210.13 237.77 203.53 232.47C197.87 227.91 195.4 220.03 196.91 212.97C197.9 206.56 202.71 201.35 208.44 198.65Z" />
	<path id="Layer" class="shp1" d="M361.66 199C366.76 196.46 372.86 196.64 378.11 198.61C389.15 202.3 393.84 217.05 388.04 226.88C383.62 235.31 373.63 238.18 365 240.09C358.27 241.03 350.52 241.85 344.65 237.73C339.34 233.79 341.09 226.34 343.19 221.13C347.32 212.43 353.19 203.9 361.66 199Z" />
	<path id="Layer" class="shp1" d="M289.46 214.69C299.38 212.45 307.96 219.26 315.82 224.24C326.32 231.89 336.14 241 342.63 252.38C347.09 261.11 349.39 271.9 345.21 281.19C340.2 295.13 323.01 303.64 309.05 298.15C303.71 296.25 300.01 291.76 295.41 288.69C294.08 287.69 292.24 288.13 291.08 289.15C286.07 292.95 281.37 297.73 275.01 299.11C262.03 302.21 247.46 294.79 242.3 282.48C237.95 273.41 239.42 262.64 243.65 253.83C247.98 245.21 254.89 238.28 261.98 231.91C269.86 224.43 279.14 218.19 289.46 214.69Z" />
	<path id="Layer" class="shp2" d="M250.18 414.3C254.99 412.62 260.38 417.39 259.16 422.38C258.33 427.2 252.15 429.58 248.18 426.87C243.41 423.98 244.55 415.48 250.18 414.3Z" />
	<path id="Layer" class="shp2" d="M432.69 420.31C436.23 419.13 440.46 418.04 443.85 420.25C445.72 421.48 445.62 423.98 445.65 425.97C445.57 440.45 445.72 454.93 445.57 469.42C441.57 470.08 437.19 470.62 433.61 468.25C433.21 466.17 432.72 464.08 432.74 461.96C432.73 448.07 432.84 434.19 432.69 420.31Z" />
	<path id="Layer" class="shp2" d="M454.61 419.77C458.55 418.88 462.88 418.45 466.52 420.57C468.64 428.57 466.96 437 467.62 445.17C472.18 440.63 476.24 435.58 480.96 431.22C485.18 430.38 490.93 434.26 489.35 439.06C487.42 443.94 482.06 446.07 479.01 450.11C478.97 451.4 480.31 452.09 481.02 453C484.36 456.18 487.58 459.49 490.87 462.73C490.28 465.65 489.16 469.11 485.79 469.73C481.01 471.16 477.05 467.28 474.51 463.74C472.23 460.97 470.14 458.03 467.6 455.48C467.49 460.09 467.56 464.7 467.47 469.3C463.11 470.01 456.89 471.3 454.59 466.29C454.65 450.78 454.61 435.27 454.61 419.77Z" />
	<path id="Layer" fill-rule="evenodd" class="shp2" d="M63.97 424.04C71.62 420.34 80.77 420.35 88.96 422.13C96.89 423.66 103.6 430.06 105.38 437.95C107.39 446.54 106.47 456.57 100.45 463.42C94.55 469.79 85.25 471.43 76.94 470.98C72.88 470.53 68.52 470.27 64.98 468.04C62.11 465.58 62.94 461.35 62.87 458C62.83 450.67 62.8 443.34 62.88 436.01C63.18 432.07 61.85 427.57 63.97 424.04ZM76.18 432.01C76.17 441.48 76.13 450.94 76.22 460.41C81.86 461.56 89.39 460.27 91.44 454.06C93.42 447.77 93.65 439.49 88.48 434.6C85.14 431.48 80.38 431.95 76.18 432.01Z" />
	<path id="Layer" class="shp2" d="M322.47 424.55C325.62 422.63 329.61 420.98 333.2 422.77C337 424.1 336.53 428.82 337.29 432.02C338.94 440.78 339.35 449.82 341.82 458.39C343.4 450.05 345.63 441.84 347.45 433.55C351.64 432.61 356.49 431.88 360.28 434.42C363.43 442.08 364.51 450.44 367.25 458.26C369.39 446.79 370.33 435.12 371.54 423.53C375.02 422.01 379.25 421.19 382.63 423.45C384.94 424.74 384.39 427.8 384.32 430.01C382.98 442.03 381.05 454.07 377.54 465.67C376.6 469.33 372.1 469.42 369.04 469.94C365.52 470.03 360.64 469.96 358.82 466.38C356.86 460.97 355.75 455.3 354 449.83C352.34 455.86 351.18 462.01 349.42 468.01C343.86 470.75 337.1 470.67 331.78 467.41C330.81 464.95 329.79 462.5 329.19 459.92C326.21 448.29 323.97 436.46 322.47 424.55Z" />
	<path id="Layer" fill-rule="evenodd" class="shp2" d="M125.36 431.49C132.99 429.55 142.19 431.15 147.29 437.57C153.51 445.65 153.15 458.58 145.9 465.92C137.24 473.55 121.73 472.68 114.93 462.96C110.66 456.43 110.43 447.66 113.75 440.69C115.97 436.06 120.44 432.76 125.36 431.49ZM128.43 441.63C123.75 445 123.85 452.03 125.75 456.92C127.38 461.5 134.58 462.2 136.89 457.88C139.03 453.77 139.15 448.49 137.14 444.31C135.71 441.01 131.46 440.12 128.43 441.63Z" />
	<path id="Layer" fill-rule="evenodd" class="shp2" d="M164.12 434.14C171.1 430.01 180.22 430.1 187.48 433.52C190.03 434.87 193.27 436.7 193.33 439.97C193.47 449.63 193.35 459.3 193.37 468.96C193.53 474.51 189.77 479.68 184.76 481.85C178.62 484.47 171.58 484.6 165.19 482.87C163.07 482.24 160.77 481.34 159.76 479.22C158.55 476.41 159.27 473.23 160.93 470.78C166.33 473.36 172.87 475.11 178.59 472.48C180.94 471.55 181.38 468.81 181.72 466.62C176.75 468.02 171.36 468.72 166.46 466.64C159.3 464.22 156.02 456.07 156.47 449.01C156.26 443.15 159.03 437.21 164.12 434.14ZM170.73 443.8C168.23 447.43 169.06 452.38 170.91 456.13C174.13 457.99 177.94 458.24 181.27 456.49C181.2 451.78 181.16 447.06 181.28 442.35C177.88 440.77 173.26 440.59 170.73 443.8Z" />
	<path id="Layer" fill-rule="evenodd" class="shp2" d="M208.62 433.73C215.62 430.05 224.37 430.17 231.46 433.57C233.98 434.87 236.9 436.63 237.14 439.78C237.4 449.18 237.15 458.59 237.26 467.99C237.49 473.18 234.81 478.58 230.12 481.02C223.31 484.72 214.86 484.84 207.61 482.41C204.69 481.52 203.12 478.86 202.57 476.01C203.37 474.42 203.21 471.99 205.04 471.15C210.55 473.11 216.79 475.21 222.45 472.47C224.94 471.56 225.1 468.66 225.56 466.45C219.53 468.69 212.33 468.65 206.93 464.85C201.96 461.33 199.97 454.92 200.34 449.05C200.14 442.95 203.13 436.66 208.62 433.73ZM213.92 444.95C212.46 448.27 212.53 452.45 214.59 455.49C217.22 458.43 221.44 458.08 224.77 456.7C224.81 451.85 225.05 446.99 224.69 442.16C221.22 440.42 215.6 440.92 213.92 444.95Z" />
	<path id="Layer" class="shp2" d="M245.73 432.11C249.57 430.82 253.83 430.48 257.5 432.46C258.09 434.26 258.64 436.11 258.55 438.04C258.48 448.48 258.56 458.92 258.52 469.36C254.56 470.08 250.22 470.61 246.67 468.27C246.17 466.2 245.64 464.11 245.73 461.97C245.76 452.01 245.77 442.06 245.73 432.11Z" />
	<path id="Layer" fill-rule="evenodd" class="shp2" d="M271.08 436.02C279.85 427.88 297.1 429.67 301.76 441.47C303.07 445.1 304.17 451.32 299.15 452.49C292.22 454.03 285.09 454.49 278.12 455.86C279.3 457.66 280.69 459.5 282.95 459.96C288.35 461.88 294.03 459.95 299.23 458.34C300.22 460.38 301.99 462.61 301.02 464.99C299.98 468.83 295.59 469.93 292.16 470.52C283.73 472.09 273.71 469.93 268.69 462.42C263.86 454.4 264.21 442.79 271.08 436.02ZM277.12 447.72C281.77 447.08 286.41 446.41 291.03 445.59C289.78 443.27 288.06 440.52 284.98 440.97C280.83 440.43 277.59 443.78 277.12 447.72Z" />
	<path id="Layer" fill-rule="evenodd" class="shp2" d="M391.66 435.83C393.15 432.26 397.46 431.62 400.83 431.08C407.59 430.4 415.39 430.38 420.75 435.2C423.89 437.8 424.77 442.1 424.55 446C424.34 452.1 424.88 458.24 424.31 464.31C422.4 468.01 418.07 469.55 414.21 470.28C407.56 471.56 400.17 471.4 394.15 467.98C387.48 464.15 387.31 452.77 394.17 449.07C399.8 446.33 406.26 446.83 412.3 445.75C411.98 444.67 411.68 443.59 411.4 442.51C405.94 439.7 399.57 441.1 394.05 442.96C391.3 442.06 391.21 438.22 391.66 435.83ZM401.73 455.77C401.67 456.68 401.55 458.5 401.49 459.42C404.64 461.77 408.68 461.02 412.27 460.35C412.23 458.25 412.2 456.15 412.19 454.05C408.64 454.09 405.06 454.47 401.73 455.77Z" />
	<path id="Layer" class="shp2" d="M496.56 439.45C498.25 433.74 504.59 431.31 510.02 430.89C515.1 430.56 520.9 430.68 524.97 434.17C527.38 436.67 526.32 440.33 524.98 443.08C519.62 441.92 513.58 439.29 508.4 442.42C508.44 442.93 508.53 443.95 508.57 444.47C513.76 446.81 519.95 446.71 524.53 450.42C529.17 454.02 529.42 461.46 525.85 465.88C521.88 470.24 515.59 471.1 510 471.01C505.57 470.66 500.46 470.16 497.37 466.56C495.32 463.87 496.35 459.95 498.65 457.73C503.86 460.13 510.27 462.34 515.71 459.35C515.44 458.07 515.65 456.31 513.95 456.08C509.01 454.47 503.29 454.37 499.21 450.75C495.84 448.1 495.78 443.28 496.56 439.45Z" />
	<path id="Layer" class="shp2" d="M46.76 508.19C47.51 508.11 49 507.96 49.74 507.88C49.79 511.2 49.81 514.52 49.76 517.84C53.66 518.07 57.56 518.04 61.46 517.94C61.44 514.53 61.45 511.12 61.52 507.72C62.21 507.85 63.57 508.1 64.26 508.22C64.54 515.82 64.34 523.44 64.33 531.05C63.62 531.04 62.21 531.03 61.5 531.03C61.47 527.36 61.46 523.7 61.48 520.04C57.58 519.96 53.68 519.97 49.78 520.07C49.67 524.27 50.11 528.5 49.52 532.68C49.4 532.18 49.15 531.18 49.03 530.69L46.79 531.01C46.86 523.4 46.91 515.79 46.76 508.19Z" />
	<path id="Layer" class="shp2" d="M76.54 508.09C81.11 507.94 85.68 507.99 90.25 508.07C90.27 508.56 90.3 509.54 90.31 510.04C86.74 510 83.17 510 79.6 509.97C79.52 512.6 79.5 515.24 79.49 517.87C82.35 518.02 85.22 517.89 88.08 518.12C88.37 518.53 88.96 519.35 89.25 519.76C86.01 520.04 82.76 520.01 79.52 520.02C79.53 523 79.53 525.98 79.53 528.97C83.03 529.04 86.54 528.83 90.03 529.14C90.15 529.61 90.38 530.56 90.49 531.03C85.85 531.02 81.21 531.05 76.58 530.91C76.62 523.3 76.68 515.69 76.54 508.09Z" />
	<path id="Layer" class="shp2" d="M101.43 508.17C102.16 508.11 103.61 507.97 104.33 507.9C104.4 514.91 104.45 521.92 104.3 528.94C107.72 529.03 111.15 528.81 114.56 529.15C114.7 529.58 114.96 530.44 115.1 530.87C110.55 531.07 106 531.05 101.46 530.92C101.47 523.34 101.52 515.75 101.43 508.17Z" />
	<path id="Layer" fill-rule="evenodd" class="shp2" d="M124.41 508.3C128.61 507.99 133.32 507.34 137.04 509.79C140.49 512.06 140.28 517.64 137.02 519.96C134.22 522 130.62 521.91 127.33 522.2C127.38 525.15 127.4 528.1 127.38 531.05C126.65 531.04 125.19 531.01 124.47 531C124.49 523.43 124.51 515.87 124.41 508.3ZM127.34 510.08C127.39 513.39 127.4 516.71 127.39 520.03C130.1 519.87 133.29 520.5 135.47 518.47C137.34 516.72 136.39 513.97 136.28 511.77C133.65 509.86 130.43 509.83 127.34 510.08Z" />
	<path id="Layer" class="shp2" d="M165.56 508.01C166.26 508.02 167.65 508.05 168.34 508.06C168.96 513.69 168.05 519.4 168.78 525.02C169.53 530.27 178.16 530.56 179.27 525.43C180.24 519.69 179.6 513.81 179.71 508.01C180.41 508.01 181.82 508 182.52 507.99C182.2 513.91 183.26 519.99 181.86 525.79C179.58 532.99 167.32 532.56 165.94 524.98C165.2 519.36 165.82 513.66 165.56 508.01Z" />
	<path id="Layer" class="shp2" d="M193.49 511.87C196.82 507.15 203.23 507.38 208.1 509.21C207.67 509.9 207.23 510.6 206.79 511.3C203.57 509.74 199.32 509.13 196.48 511.76C196.51 512.64 196.56 514.39 196.59 515.27C199.93 517.78 204.39 518.44 207.38 521.42C209.32 524.01 208.02 527.2 206.25 529.46C201.79 531.71 196.67 531.17 192.17 529.37C192.59 528.85 193.42 527.81 193.84 527.29C196.41 528.26 199.03 529.63 201.87 528.89C204.76 528.69 206.71 524.8 204.55 522.63C201.85 519.97 197.64 519.72 194.85 517.17C193.52 515.74 193.74 513.66 193.49 511.87Z" />
	<path id="Layer" class="shp2" d="M235.57 508C236.31 508 237.79 508 238.53 508C238.52 511.32 238.52 514.65 238.52 517.98C242.44 518.02 246.36 518.02 250.28 517.91C250.21 514.61 250.21 511.31 250.2 508.01C250.94 508.04 252.43 508.09 253.18 508.12C253.18 515.67 253.1 523.23 253.22 530.78C252.48 530.87 251 531.03 250.26 531.12C250.2 527.43 250.2 523.75 250.22 520.08C246.32 519.98 242.42 519.99 238.52 520.03C238.54 523.68 238.51 527.34 238.51 531C237.78 531 236.32 531 235.59 531C235.64 523.33 235.64 515.66 235.57 508Z" />
	<path id="Layer" class="shp2" d="M265.45 508.06C270.06 507.93 274.67 507.94 279.28 508.12C279.1 508.56 278.75 509.43 278.58 509.86C275.19 510.17 271.78 509.94 268.39 509.98C268.4 512.62 268.39 515.26 268.34 517.91C271.74 518.1 275.34 517.46 278.54 518.93C275.48 520.79 271.75 519.77 268.36 520.02C268.37 522.98 268.37 525.95 268.37 528.92C271.84 529.07 275.37 528.69 278.82 529.26C279 529.64 279.38 530.42 279.56 530.81C274.86 531.11 270.14 531.03 265.43 530.97C265.5 523.34 265.49 515.7 265.45 508.06Z" />
	<path id="Layer" class="shp2" d="M289.77 508.18C290.52 508.12 292.02 507.98 292.77 507.91C292.78 514.9 292.84 521.89 292.73 528.89C296.61 529.25 300.77 528.22 304.4 529.99C299.83 532.02 294.6 530.71 289.75 530.85C289.93 523.3 289.88 515.74 289.77 508.18Z" />
	<path id="Layer" fill-rule="evenodd" class="shp2" d="M313.19 508.27C317.3 508.01 321.79 507.36 325.5 509.63C328.52 511.53 329.23 516.14 326.8 518.8C324.21 522.11 319.56 521.84 315.8 522.26C315.81 525.13 315.96 528.01 316.29 530.88C315.52 530.92 313.98 531.01 313.21 531.05C313.23 523.46 313.25 515.87 313.19 508.27ZM316.13 510.04C316.15 513.37 316.16 516.71 316.16 520.05C318.85 519.82 322.21 520.58 324.21 518.26C325.99 516.45 325.63 513.56 324.34 511.58C322.16 509.46 318.88 510.12 316.13 510.04Z" />
	<path id="Layer" fill-rule="evenodd" class="shp2" d="M360.94 508.13C361.75 508.08 363.35 507.99 364.16 507.95C366.97 514.92 369.79 521.9 372.69 528.83C373.48 530.46 371 530.38 370.04 530.61C369.49 528.41 368.77 526.27 368.09 524.13C364.34 523.96 360.6 523.97 356.86 524.08C356.1 526.34 355.27 528.58 354.43 530.82C353.63 530.51 352.84 530.2 352.05 529.89C354.8 522.55 358.08 515.42 360.94 508.13ZM357.72 521.86C360.78 522.04 363.86 522.06 366.92 521.85C365.28 518.24 364.26 514.36 362.19 510.95C360.83 514.64 359.53 518.36 357.72 521.86Z" />
	<path id="Layer" class="shp2" d="M382.76 508.07C384.15 508.07 385.55 508.08 386.96 508.11C390.25 514.58 393.67 520.99 397.25 527.3C397.46 520.89 397.29 514.47 397.35 508.07C398.05 508.07 399.45 508.09 400.15 508.09C400.15 515.7 400.18 523.31 400.14 530.92C398.75 530.91 397.37 530.89 395.99 530.87C392.85 524.38 389.19 518.16 385.72 511.86C385.61 518.26 385.71 524.67 385.62 531.08C384.91 531 383.48 530.85 382.76 530.77C382.88 523.2 382.88 515.63 382.76 508.07Z" />
	<path id="Layer" class="shp2" d="M412.48 508C413.21 508 414.67 507.99 415.4 507.99C415.35 515.68 415.4 523.37 415.37 531.07C414.64 531.04 413.19 531 412.46 530.98C412.47 523.32 412.45 515.66 412.48 508Z" />
	<path id="Layer" class="shp2" d="M427.77 508.3C429.19 508.14 430.61 508 432.05 507.88C434.06 512.69 436.23 517.43 438.27 522.23C441.44 518.05 442.7 512.77 444.98 508.09C446.41 508.03 447.85 507.98 449.29 507.95C449.2 515.63 449.19 523.31 449.31 530.99C448.59 530.99 447.17 530.99 446.46 530.99C446.42 524.6 446.65 518.2 446.27 511.82C444.11 516.41 442 521.02 440.08 525.72C439.32 525.72 437.79 525.72 437.02 525.72C434.98 521.06 432.87 516.43 430.78 511.8C430.49 518.22 430.74 524.65 430.6 531.07C429.9 531.02 428.49 530.91 427.79 530.86C427.83 523.34 427.9 515.82 427.77 508.3Z" />
	<path id="Layer" fill-rule="evenodd" class="shp2" d="M458.87 530.08C461.58 522.59 464.98 515.37 467.88 507.96C468.68 508.01 470.28 508.12 471.08 508.17C473.96 515.41 476.95 522.6 479.9 529.82C479.19 530.06 477.77 530.54 477.06 530.78C476.4 528.62 475.67 526.48 475.09 524.31C471.32 523.85 467.52 524.01 463.74 524.03C462.95 526.25 462.15 528.47 461.35 530.69C460.52 530.48 459.69 530.28 458.87 530.08ZM464.9 521.85C467.82 521.99 470.76 522.03 473.69 522.06C472.29 518.39 470.88 514.72 469.59 511.01C467.3 514.27 466.39 518.21 464.9 521.85Z" />
	<path id="Layer" class="shp2" d="M489.59 507.97C490.33 507.99 491.81 508.04 492.55 508.07C492.51 515.05 492.55 522.04 492.53 529.03C495.95 529.06 499.42 528.66 502.82 529.25C503 529.64 503.38 530.42 503.56 530.81C498.91 531.11 494.26 531.01 489.61 531C489.63 523.32 489.65 515.64 489.59 507.97Z" />
	<path id="Layer" class="shp2" d="M515.75 508.65C519.44 507.14 523.55 508.13 527.01 509.8C523.2 512.2 518.06 507.85 514.65 511.8C514.63 512.61 514.59 514.23 514.57 515.04C517.55 517.49 521.48 518.23 524.54 520.5C527.77 522.89 526.82 528.5 523.12 529.87C519.26 531.89 514.81 530.84 510.9 529.6C511.22 528.74 511.57 527.89 511.94 527.05C515.27 529.2 521.57 530.66 523.44 526.06C524.31 518.96 513.32 520.99 511.92 515C510.96 512.24 513.19 509.45 515.75 508.65Z" />
</svg>